<?xml version="1.0" encoding="UTF-8"?>
<svg version="1.1" xmlns="http://www.w3.org/2000/svg" width="32" height="32">
<path d="M0 0 C4.8846525 2.26787438 7.73212562 5.1153475 10 10 C10.75381535 15.5997712 10.77303575 20.33499991 8.375 25.5 C3.80134327 30.3143755 0.6912538 32.25156236 -6 32.5 C-12.6912538 32.25156236 -15.80134327 30.3143755 -20.375 25.5 C-22.77303575 20.33499991 -22.75381535 15.5997712 -22 10 C-17.52212837 0.3553534 -9.85292056 -1.32635469 0 0 Z " fill="#0223AA" transform="translate(22,0)"/>
<path d="M0 0 C2.97 0 5.94 0 9 0 C8.01 0.33 7.02 0.66 6 1 C5.8453125 2.9490625 5.8453125 2.9490625 5.6875 4.9375 C5.00325744 11.12500769 3.46746842 16.79879737 0 22 C-1.65 21.67 -3.3 21.34 -5 21 C-5 19.02 -5 17.04 -5 15 C-4.34 14.67 -3.68 14.34 -3 14 C-3 16.31 -3 18.62 -3 21 C0.7762928 18.26245823 1.22469744 14.1020289 2.1875 9.8125 C2.36474609 9.06291016 2.54199219 8.31332031 2.72460938 7.54101562 C3.15936263 5.69625181 3.58097276 3.84839934 4 2 C2.35 2 0.7 2 -1 2 C-0.67 1.34 -0.34 0.68 0 0 Z " fill="#C4CCEA" transform="translate(14,5)"/>
</svg>
